<svg xmlns="http://www.w3.org/2000/svg" width="256" height="1024" viewBox="0 0 256 1024">
  <rect width="256" height="1024" fill="none" />
  <g stroke="rgba(180,200,255,0.45)" stroke-width="3" stroke-linecap="round">
    <line x1="20" y1="40" x2="30" y2="80" />
    <line x1="60" y1="80" x2="70" y2="120" />
    <line x1="100" y1="30" x2="110" y2="70" />
    <line x1="140" y1="90" x2="150" y2="130" />
    <line x1="180" y1="50" x2="190" y2="90" />
    <line x1="220" y1="100" x2="230" y2="140" />
  </g>
  <g transform="translate(0 256)" stroke="rgba(180,200,255,0.45)" stroke-width="3" stroke-linecap="round">
    <line x1="30" y1="30" x2="40" y2="70" />
    <line x1="80" y1="60" x2="90" y2="100" />
    <line x1="120" y1="20" x2="130" y2="60" />
    <line x1="170" y1="80" x2="180" y2="120" />
    <line x1="210" y1="40" x2="220" y2="80" />
  </g>
  <g transform="translate(0 512)" stroke="rgba(180,200,255,0.45)" stroke-width="3" stroke-linecap="round">
    <line x1="10" y1="40" x2="20" y2="80" />
    <line x1="50" y1="90" x2="60" y2="130" />
    <line x1="110" y1="30" x2="120" y2="70" />
    <line x1="160" y1="70" x2="170" y2="110" />
    <line x1="200" y1="50" x2="210" y2="90" />
  </g>
  <g transform="translate(0 768)" stroke="rgba(180,200,255,0.45)" stroke-width="3" stroke-linecap="round">
    <line x1="25" y1="50" x2="35" y2="90" />
    <line x1="75" y1="70" x2="85" y2="110" />
    <line x1="130" y1="35" x2="140" y2="75" />
    <line x1="185" y1="85" x2="195" y2="125" />
    <line x1="225" y1="45" x2="235" y2="85" />
  </g>
</svg>
